 http://img846.imageshack.us/img846/7247/30mins.jpg


Canada / Verenigde Staten / Duitsland
Avontuur / Komedie
83 minuten

geregisseerd door Ruben Fleischer
met Jesse Eisenberg, Danny McBride en Aziz Ansari

Nick (Jesse Eisenberg) is een pizzabezorger in een klein dorpje. Zijn leventje wordt op z\'n kop gezet wanneer twee wannabe-gangsters (Danny McBride en Nick Swardson) hem kidnappen en hem dwingen een bank te overvallen. Nick krijgt hiervoor slechts weinig tijd en hij roept de hulp in van z\'n vroegere beste vriend, Chet (Aziz Ansari). In een race tegen de klok moeten de twee omgaan met de politie, huurmoordenaars, vlammenwerpers en hun eigen vertroebelde relatie.



Vertaald door Simply Release Toppers:
Markow87 & Tokke






Screenshots:
 
http://img802.imageshack.us/img802/6184/screenshot1q.jpg
 
http://img196.imageshack.us/img196/7300/screenshot2bk.jpg
 
http://img266.imageshack.us/img266/1503/screenshot3az.jpg
 
http://img510.imageshack.us/img510/4851/screenshot4ps.jpg



INFO;


Video
ID                                       : 0
Format                                   : MPEG-4 Visual
Format profile                           : Advanced Simple@L5
Format settings, BVOP                    : 1
Format settings, QPel                    : No
Format settings, GMC                     : No warppoints
Format settings, Matrix                  : Default (H.263)
Muxing mode                              : Packed bitstream
Codec ID                                 : XVID
Codec ID/Hint                            : XviD
Duration                                 : 1h 19mn
Bit rate                                 : 1 090 Kbps
Width                                    : 640 pixels
Height                                   : 272 pixels
Display aspect ratio                     : 2.35:1
Frame rate                               : 25.000 fps
Color space                              : YUV
Chroma subsampling                       : 4:2:0
Bit depth                                : 8 bits
Scan type                                : Progressive
Compression mode                         : Lossy
Bits/(Pixel*Frame)                       : 0.250
Stream size                              : 621 MiB (89%)
Writing library                          : XviD 64

Audio
ID                                       : 1
Format                                   : MPEG Audio
Format version                           : Version 1
Format profile                           : Layer 3
Mode                                     : Joint stereo
Mode extension                           : MS Stereo
Codec ID                                 : 55
Codec ID/Hint                            : MP3
Duration                                 : 1h 19mn
Bit rate mode                            : Constant
Bit rate                                 : 128 Kbps
Channel(s)                               : 2 channels
Sampling rate                            : 44.1 KHz
Compression mode                         : Lossy
Stream size                              : 73.0 MiB (10%)
Alignment                                : Split accross interleaves
Interleave, duration                     : 40 ms (1.00 video frame)
Interleave, preload duration             : 500 ms




 
http://www.imdb.com/title/tt1622547/ 
http://www.moviemeter.nl/film/73020





Deze film wordt u aangeboden door het DutchReleaseTeam.
Voor de reviews van de nieuwste films, muziek, series, games etc
ga dan eens naar http://www.hetmultimediacafe.be

DutchReleaseteam = Hardcoded Dutch Subs